<?xml version="1.0" encoding="UTF-8"?>
<svg id="Calque_1" xmlns="http://www.w3.org/2000/svg" xmlns:xlink="http://www.w3.org/1999/xlink" version="1.1" viewBox="0 0 169.37 162.06">
  <!-- Generator: Adobe Illustrator 30.2.1, SVG Export Plug-In . SVG Version: 2.1.1 Build 1)  -->
  <defs>
    <style>
      .st0 {
        fill: none;
      }

      .st1 {
        fill: url(#Dégradé_sans_nom_126);
      }

      .st2 {
        fill: url(#Dégradé_sans_nom_129);
      }

      .st3 {
        fill: url(#Dégradé_sans_nom_127);
      }

      .st4 {
        fill: url(#Dégradé_sans_nom_122);
      }

      .st5 {
        fill: url(#Dégradé_sans_nom_125);
      }

      .st6 {
        fill: url(#Dégradé_sans_nom_128);
      }

      .st7 {
        fill: url(#Dégradé_sans_nom_123);
      }

      .st8 {
        fill: url(#Dégradé_sans_nom_124);
      }

      .st9 {
        fill: url(#Dégradé_sans_nom_121);
      }

      .st10 {
        fill: url(#Dégradé_sans_nom_12);
      }

      .st11 {
        fill: url(#Dégradé_sans_nom_1214);
      }

      .st12 {
        fill: url(#Dégradé_sans_nom_1210);
      }

      .st13 {
        fill: url(#Dégradé_sans_nom_1212);
      }

      .st14 {
        fill: url(#Dégradé_sans_nom_1211);
      }

      .st15 {
        fill: url(#Dégradé_sans_nom_1213);
      }
    </style>
    <linearGradient id="Dégradé_sans_nom_12" data-name="Dégradé sans nom 12" x1="-18.69" y1="47.79" x2="188.06" y2="47.79" gradientUnits="userSpaceOnUse">
      <stop offset="0" stop-color="#1067fd"/>
      <stop offset="1" stop-color="#b214fa"/>
    </linearGradient>
    <linearGradient id="Dégradé_sans_nom_121" data-name="Dégradé sans nom 12" y1="21.48" y2="21.48" xlink:href="#Dégradé_sans_nom_12"/>
    <linearGradient id="Dégradé_sans_nom_122" data-name="Dégradé sans nom 12" y1="27.57" x2="188.06" y2="27.57" xlink:href="#Dégradé_sans_nom_12"/>
    <linearGradient id="Dégradé_sans_nom_123" data-name="Dégradé sans nom 12" y1="88.59" x2="188.06" y2="88.59" xlink:href="#Dégradé_sans_nom_12"/>
    <linearGradient id="Dégradé_sans_nom_124" data-name="Dégradé sans nom 12" y1="91.61" y2="91.61" xlink:href="#Dégradé_sans_nom_12"/>
    <linearGradient id="Dégradé_sans_nom_125" data-name="Dégradé sans nom 12" y1="84.54" x2="188.06" y2="84.54" xlink:href="#Dégradé_sans_nom_12"/>
    <linearGradient id="Dégradé_sans_nom_126" data-name="Dégradé sans nom 12" y1="66.37" x2="188.06" y2="66.37" xlink:href="#Dégradé_sans_nom_12"/>
    <linearGradient id="Dégradé_sans_nom_127" data-name="Dégradé sans nom 12" y1="77.62" x2="188.06" y2="77.62" xlink:href="#Dégradé_sans_nom_12"/>
    <linearGradient id="Dégradé_sans_nom_128" data-name="Dégradé sans nom 12" y1="145.56" x2="188.06" y2="145.56" xlink:href="#Dégradé_sans_nom_12"/>
    <linearGradient id="Dégradé_sans_nom_129" data-name="Dégradé sans nom 12" y1="146.74" x2="188.06" y2="146.74" xlink:href="#Dégradé_sans_nom_12"/>
    <linearGradient id="Dégradé_sans_nom_1210" data-name="Dégradé sans nom 12" y1="149.12" x2="188.06" y2="149.12" xlink:href="#Dégradé_sans_nom_12"/>
    <linearGradient id="Dégradé_sans_nom_1211" data-name="Dégradé sans nom 12" y1="149.3" x2="188.06" y2="149.3" xlink:href="#Dégradé_sans_nom_12"/>
    <linearGradient id="Dégradé_sans_nom_1212" data-name="Dégradé sans nom 12" y1="146.74" x2="188.06" y2="146.74" xlink:href="#Dégradé_sans_nom_12"/>
    <linearGradient id="Dégradé_sans_nom_1213" data-name="Dégradé sans nom 12" y1="149.3" x2="188.06" y2="149.3" xlink:href="#Dégradé_sans_nom_12"/>
    <linearGradient id="Dégradé_sans_nom_1214" data-name="Dégradé sans nom 12" y1="149.3" x2="188.06" y2="149.3" xlink:href="#Dégradé_sans_nom_12"/>
  </defs>
  <polygon class="st10" points="38.35 43.51 49.81 51.03 73.14 66.1 82.09 57.67 38.41 29.48 38.35 43.51"/>
  <path class="st9" d="M88.04,14.11h-8.68s-5.16,0-5.16,0l-4.76.03-3.38,3.21-4.87,4.84,10.1,6.68c.94-.91,1.85-1.85,2.6-2.81-.05-.01.48-.3.72-.3l9.34.08,20.05.03-.02-11.77-15.96.02Z"/>
  <path class="st4" d="M63.58.25c-.55.4-1.06.89-1.56,1.39l-9.62,9.65-6.52,6.53-7.27,7.26c.26.15.81.46,1.07.62l45.15,29.45,8.83-8.28-37.51-24.24,12.08-11.73h39.08s.24.23.24.23l.06,14.66c.33-.37.58-.67.75-.81,1.22-1,3.11-3.12,4.33-4.37l15.89-16.37,3.43-3.68.5-.55H63.95s-.37.25-.37.25Z"/>
  <path class="st7" d="M122.24,66.01c-.2-.13-.49-.29-.59-.34v14.68s-10.79,10.83-10.79,10.83l-9.5,9.49-39.63.03-.02-15.06-8.49,8.63-16.43,17.23,68.89.02c2.32-2.16,4.61-4.39,6.75-6.72,1.93-2.1,3.99-4.04,6.12-6.14l12.15-12.02-.08-15.04-8.39-5.57Z"/>
  <polygon class="st8" points="64.98 85.51 64.97 97.71 75.56 97.71 75.56 85.52 64.98 85.51"/>
  <polygon class="st5" points="79.09 71.38 79.08 97.4 79.08 97.7 79.63 97.7 89.4 97.71 89.94 97.7 89.94 97.4 89.94 71.38 79.09 71.38"/>
  <path class="st1" d="M107.58,42.84v47.06s4.65-4.66,4.65-4.66l5.91-5.61-.02-36.78h-10.54Z"/>
  <path class="st3" d="M104.09,57.56l-9.99-.04c-.15,0-.71,0-.63,0v40.2s6.14.05,6.31,0l4.01-4.07c.62-11.83.07-23.67.3-36.08Z"/>
  <path class="st6" d="M8.08,138.54c0-2.03,1.71-3.7,6.15-3.7,2.86,0,5.96.83,8.96,2.54l2.31-5.68c-3-1.89-7.16-2.86-11.23-2.86-9.19,0-13.63,4.57-13.63,10.07,0,12.01,18.8,7.85,18.8,13.91,0,1.99-1.8,3.46-6.24,3.46-3.88,0-7.95-1.39-10.67-3.37l-2.54,5.64c2.86,2.22,8.04,3.74,13.17,3.74,9.24,0,13.72-4.62,13.72-10.03,0-11.87-18.81-7.76-18.81-13.72Z"/>
  <path class="st2" d="M42.69,156.37c-1.94,0-3.1-1.16-3.1-3.28v-10.12h6.19v-5.54h-6.19v-6.05h-7.21v6.05h-3.83v5.54h3.83v10.21c0,5.91,3.42,8.92,9.29,8.92,2.22,0,4.39-.51,5.87-1.57l-1.94-5.08c-.79.6-1.85.92-2.91.92Z"/>
  <path class="st12" d="M58.49,140.16v-3.28h-6.88v24.86h7.21v-11.74c0-4.76,2.63-6.93,6.61-6.93.55,0,1.02.05,1.62.09v-6.65c-3.83,0-6.79,1.25-8.55,3.65Z"/>
  <g>
    <path class="st0" d="M76.6,154.25c0,1.8,1.52,3,4.07,3,2.4,0,4.48-1.11,5.31-3.37v-2.54h-4.94c-3.37,0-4.44,1.25-4.44,2.91Z"/>
    <path class="st14" d="M81.22,136.51c-3.97,0-7.99,1.06-10.72,3l2.59,5.04c1.8-1.43,4.53-2.31,7.16-2.31,3.88,0,5.73,1.8,5.73,4.9h-5.73c-7.58,0-10.67,3.05-10.67,7.44s3.46,7.53,9.29,7.53c3.65,0,6.24-1.2,7.58-3.46v3.1h6.75v-14.18c0-7.53-4.39-11.04-11.97-11.04ZM85.98,153.88c-.83,2.26-2.91,3.37-5.31,3.37-2.54,0-4.07-1.2-4.07-3,0-1.66,1.06-2.91,4.44-2.91h4.94v2.54Z"/>
  </g>
  <path class="st13" d="M110.88,156.37c-1.94,0-3.1-1.16-3.1-3.28v-10.12h6.19v-5.54h-6.19v-6.05h-7.21v6.05h-3.83v5.54h3.83v10.21c0,5.91,3.42,8.92,9.29,8.92,2.22,0,4.39-.51,5.87-1.57l-1.94-5.08c-.79.6-1.85.92-2.91.92Z"/>
  <g>
    <path class="st0" d="M130.84,142.42c-3.6,0-6.38,2.59-6.38,6.88s2.77,6.88,6.38,6.88,6.33-2.59,6.33-6.88-2.73-6.88-6.33-6.88Z"/>
    <path class="st15" d="M130.84,136.51c-7.9,0-13.68,5.31-13.68,12.8s5.78,12.8,13.68,12.8,13.63-5.31,13.63-12.8-5.73-12.8-13.63-12.8ZM130.84,156.19c-3.6,0-6.38-2.59-6.38-6.88s2.77-6.88,6.38-6.88,6.33,2.59,6.33,6.88-2.73,6.88-6.33,6.88Z"/>
  </g>
  <path class="st11" d="M154.35,144.27c0-1.29,1.39-2.31,4.62-2.31,2.26,0,4.71.46,7.16,1.85l2.4-5.13c-2.36-1.39-6.15-2.17-9.56-2.17-7.25,0-11.5,3.33-11.5,8.04,0,9.93,15.02,5.78,15.02,9.84,0,1.39-1.25,2.26-4.57,2.26-3.05,0-6.42-.97-8.64-2.4l-2.4,5.17c2.31,1.53,6.56,2.68,10.77,2.68,7.44,0,11.74-3.28,11.74-7.9,0-9.79-15.02-5.68-15.02-9.93Z"/>
</svg>